<svg width="80" height="80" xmlns="http://www.w3.org/2000/svg" clip-rule="evenodd" fill-rule="evenodd" image-rendering="optimizeQuality" text-rendering="geometricPrecision" shape-rendering="geometricPrecision">

 <g>
  <title>Layer 1</title>
  <path fill="#9d4edd" id="svg_1" d="m53.27543,15.81391l3.44349,8.48957l8.77444,0.82683c0.35294,0.03714 0.65985,0.22124 0.87161,0.48609l0.03529,0.05006a1.29821,1.36621 0 0 1 0.27008,0.93342l-0.0046,0.05168a1.31509,1.38398 0 0 1 -0.13504,0.4764l-0.01995,0.03876c-0.06292,0.12112 -0.14425,0.23093 -0.23785,0.32621l-6.67367,6.13503l1.96573,9.05802c0.07059,0.36012 -0.00153,0.71863 -0.17494,1.00932a1.30589,1.37429 0 0 1 -1.33658,0.62335a1.26476,1.33101 0 0 1 -0.49105,-0.20186l-7.50385,-4.72199l-7.56523,4.75913c-0.30691,0.18733 -0.65831,0.22932 -0.97443,0.14534a1.31264,1.38139 0 0 1 -0.80563,-0.6282l-0.02609,-0.05168a1.30773,1.37622 0 0 1 -0.12737,-0.96733l1.95806,-9.0241l-6.62457,-6.08659a1.31294,1.38171 0 0 1 -0.44501,-0.94957c-0.02148,-0.34882 0.08286,-0.70894 0.32225,-0.9964c0.11969,-0.14373 0.25934,-0.25516 0.41125,-0.33267c0.15652,-0.08075 0.32839,-0.12596 0.50333,-0.13727l8.71153,-0.82199l3.45576,-8.51218a1.31448,1.38333 0 0 1 0.71816,-0.73963c0.30844,-0.13081 0.66906,-0.13888 1.00205,0.0113l0.03683,0.01776c0.14731,0.07106 0.27468,0.16634 0.37903,0.27615l0.04143,0.04683c0.10128,0.1195 0.18261,0.25354 0.23939,0.39727l0.00614,0.01292zm-52.52543,26.99964l16.3673,0l-0.65524,29.81765l-15.71205,0l0,-29.81765zm18.95145,27.40982l0.54783,-24.75007l10.57752,0.26c4.46548,0.95603 8.8926,3.62385 13.31205,6.70671l8.21587,0.20025c3.71356,0.32783 5.57341,4.34087 1.90282,6.85851c-2.93095,2.15267 -6.72891,1.93466 -10.61588,1.47118c-2.68389,-0.20509 -2.88492,3.59317 -0.08133,3.67391c0.96982,0.10335 2.03479,-0.10981 2.95857,-0.08882c4.86293,0.11466 8.89107,-0.76547 11.43071,-4.74783l1.29975,-2.99727l12.36217,-6.0769c6.16267,-1.96857 10.35961,4.87056 5.75142,9.44075c-9.00155,6.56137 -18.20566,11.9164 -27.58932,16.19268c-6.8394,4.15193 -13.57906,3.84025 -20.23124,-0.49578l-9.84094,-5.64733zm8.65475,-51.78685c-0.62762,-0.27776 -0.92225,-1.04 -0.65831,-1.7005c0.26394,-0.6605 0.98824,-0.97056 1.61586,-0.6928l5.15142,2.2964c0.62762,0.27776 0.92225,1.04 0.65831,1.7005a1.23622,1.30097 0 0 1 -1.61739,0.6928l-5.14988,-2.2964zm5.23735,-8.44758c-0.48031,-0.51031 -0.47877,-1.33391 0.0046,-1.83938c0.48491,-0.50547 1.26752,-0.50385 1.74783,0.00484l3.93454,4.18584c0.48031,0.5087 0.47877,1.3323 -0.0046,1.83776c-0.48491,0.50708 -1.26752,0.50385 -1.74783,-0.00484l-3.93454,-4.18423zm7.89669,-5.72323c-0.25934,-0.66373 0.04297,-1.42273 0.67366,-1.69565c0.63069,-0.27292 1.35192,0.0436 1.61126,0.70733l2.12686,5.44547a1.23438,1.29903 0 0 1 -0.67212,1.69565c-0.63069,0.27292 -1.35346,-0.0436 -1.61279,-0.70733l-2.12686,-5.44547zm33.31311,11.77752c0.62762,-0.27776 1.35192,0.0323 1.61586,0.6928c0.26394,0.6605 -0.02916,1.42273 -0.65831,1.7005l-5.14988,2.2964c-0.62762,0.27776 -1.35192,-0.0323 -1.61586,-0.6928a1.23192,1.29645 0 0 1 0.65831,-1.7005l5.14988,-2.2964zm-6.03224,-7.88882c0.48184,-0.5087 1.26445,-0.51031 1.74783,-0.00484c0.48338,0.50547 0.48645,1.32907 0.0046,1.83938l-3.93454,4.18423c-0.48031,0.5087 -1.26292,0.51193 -1.7463,0.00484c-0.48338,-0.50547 -0.48645,-1.32907 -0.00614,-1.83776l3.93454,-4.18584zm-8.42917,-4.87702c0.25934,-0.66373 0.9821,-0.98025 1.61126,-0.70733c0.63069,0.27292 0.93299,1.03193 0.67366,1.69565l-2.12686,5.44547a1.23438,1.29903 0 0 1 -1.61126,0.70733c-0.63069,-0.27292 -0.93299,-1.03193 -0.67366,-1.69565l2.12686,-5.44547zm-9.56012,-1.14174c0,-0.71863 0.55397,-1.30323 1.23837,-1.30323c0.6844,0 1.23837,0.5846 1.23837,1.30323l0,5.88795c0,0.71863 -0.55397,1.30323 -1.23837,1.30323c-0.6844,0 -1.23837,-0.5846 -1.23837,-1.30323l0,-5.88795z" fill-rule="nonzero"/>
 </g>
</svg>