<svg width="80" height="80" xmlns="http://www.w3.org/2000/svg" xml:space="preserve" version="1.1">

 <g>
  <title>Layer 1</title>
  <g stroke="null" id="svg_1">
   <path stroke="#9d4edd" fill="#9d4edd" id="svg_2" clip-rule="evenodd" fill-rule="evenodd" d="m42.04145,0.9662l11.72442,0c1.17753,0 2.13866,1.19115 2.13866,2.65051l0,11.70643l-16.00173,0l0,-11.70643c0,-1.45936 0.96112,-2.65051 2.13866,-2.65051l0,0zm13.86944,21.51175l0,35.64782l-16.0081,0l0,-35.64782l16.0081,0l0,0zm0,42.81051l0,10.88603c0,1.45936 -0.96112,2.65051 -2.13866,2.65051l-11.73078,0c-1.17753,0 -2.13866,-1.19115 -2.13866,-2.65051l0,-10.88603l16.0081,0l0,0z" class="st0"/>
   <path stroke="#9d4edd" fill="#9d4edd" id="svg_3" clip-rule="evenodd" fill-rule="evenodd" d="m65.34389,0.9662l11.72442,0c1.17753,0 2.13866,1.19115 2.13866,2.65051l0,11.70643l-0.01273,0l-15.989,0l0,-11.70643c0,-1.45936 0.96749,-2.65051 2.13866,-2.65051l0,0zm13.86944,21.51175l0,35.64782l-16.0081,0l0,-35.64782l15.99537,0l0.01273,0l0,0zm0,42.81051l0,10.88603c0,1.45936 -0.96112,2.65051 -2.13866,2.65051l-11.72442,0c-1.17753,0 -2.13866,-1.19115 -2.13866,-2.65051l0,-10.88603l16.00173,0l0,0z" class="st0"/>
   <path stroke="#9d4edd" fill="#9d4edd" id="svg_4" clip-rule="evenodd" fill-rule="evenodd" d="m23.88197,0.82421l11.0179,4.96971c1.10752,0.49697 1.68037,2.02733 1.27937,3.39991l-3.22708,10.99647l-15.04061,-6.78405l3.22708,-10.99647c0.40736,-1.37259 1.64218,-2.08255 2.74334,-1.58557l0,0zm7.09703,26.09493l-9.834,33.50217l-15.04061,-6.78405l9.834,-33.49428l15.04061,6.77616l0,0zm-11.80716,40.231l-3.0043,10.22341c-0.401,1.37259 -1.63582,2.08255 -2.74334,1.58557l-11.0179,-4.96971c-1.10752,-0.49697 -1.68037,-2.02733 -1.27937,-3.39991l3.0043,-10.22341l15.04061,6.78405l0,0z" class="st0"/>
  </g>
 </g>
</svg>