<svg width="80" height="80" xmlns="http://www.w3.org/2000/svg" clip-rule="evenodd" fill-rule="evenodd" image-rendering="optimizeQuality" text-rendering="geometricPrecision" shape-rendering="geometricPrecision">

 <g>
  <title>Layer 1</title>
  <path fill="#9d4edd" id="svg_1" d="m54.56507,70.82047c0.1368,-0.06025 0.27528,-0.11124 0.41709,-0.15141c0.1318,-0.09115 0.27194,-0.17149 0.42042,-0.24411c1.60495,-0.76322 3.13817,-1.63614 4.58963,-2.62957c0.7958,-0.54538 1.83852,-0.69061 2.76946,-0.37234c2.19555,0.73541 2.6143,3.4685 0.74408,4.75084a39.33903,36.43019 0 0 1 -5.41713,3.10542c-0.17851,0.08497 -0.36203,0.14986 -0.54555,0.19776c-0.12179,0.08188 -0.25359,0.1545 -0.39039,0.21784l-0.03837,0.01699l0.00334,0.00463c-9.72315,4.34759 -20.42895,4.63342 -29.88015,1.58207c-9.4512,-3.0529 -17.64447,-9.44296 -22.33921,-18.44561c-4.69474,-9.00419 -5.00338,-18.91837 -1.70839,-27.67073c3.29499,-8.75235 10.19696,-16.33979 19.91843,-20.68893c3.39843,-1.51872 6.91865,-2.54305 10.46556,-3.10233c2.98968,-0.47122 5.99772,-0.61182 8.96405,-0.43878l-1.66501,-1.45383c-1.31967,-1.14947 -1.38306,-3.07144 -0.14181,-4.29198c1.24125,-1.22209 3.31668,-1.28079 4.63468,-0.13132l6.65672,5.8107c0.25859,0.22557 0.46714,0.47895 0.62897,0.75086c0.93261,1.22209 0.76577,2.92621 -0.45212,3.96907l-6.71344,5.75508c-1.32634,1.13557 -3.39509,1.06141 -4.623,-0.16686c-1.22624,-1.22827 -1.14616,-3.14405 0.18018,-4.27962l0.64231,-0.55156c-2.36906,-0.10506 -4.76481,0.02317 -7.14554,0.39861c-3.0047,0.47277 -5.99105,1.34259 -8.87729,2.63266c-8.26334,3.69561 -14.12759,10.14284 -16.92708,17.57732c-2.80116,7.43602 -2.53589,15.86239 1.4548,23.51626c3.99069,7.65232 10.95272,13.08295 18.98082,15.67544c4.44115,1.43529 9.21096,2.00076 13.98578,1.59443a3.38675,3.13632 0 0 1 0.33367,-0.05407c0.54889,-0.05407 1.09444,-0.1236 1.63999,-0.20085c0.13847,-0.01854 0.27861,-0.02935 0.41542,-0.0309c3.05475,-0.46968 6.08781,-1.34568 9.01743,-2.65583l0.00167,0.00463zm-20.72258,-42.41454c0,-1.54962 1.35637,-2.8057 3.02972,-2.8057s3.02972,1.25607 3.02972,2.8057l0,17.0752l12.6194,5.13708c1.52988,0.62417 2.22391,2.27731 1.55157,3.69252c-0.67401,1.41675 -2.45915,2.05947 -3.98903,1.43529l-14.27774,-5.8107c-1.14616,-0.40015 -1.96365,-1.42448 -1.96365,-2.62802l0,-18.90138zm33.66564,32.23771c-0.67401,0.91463 -0.70238,2.05638 -0.08008,3.00037c1.12947,1.65623 3.70707,1.72266 4.9183,0.11278c1.22123,-1.64541 2.26562,-3.30164 3.19322,-5.10464c1.0277,-2.02084 -0.85586,-4.26726 -3.22826,-3.84238c-0.92927,0.17767 -1.6867,0.71378 -2.09545,1.50945c-0.78579,1.52799 -1.67336,2.93084 -2.70773,4.32442zm5.64403,-13.9018c-0.27528,2.43181 2.74777,3.9459 4.79818,2.404c0.60394,-0.46813 0.96764,-1.08304 1.05773,-1.80918c0.23524,-1.95595 0.29363,-3.92427 0.18185,-5.88795c-0.12679,-2.25105 -3.00136,-3.39279 -4.85156,-1.92969c-0.70071,0.55156 -1.07775,1.3704 -1.02937,2.22015c0.09176,1.67322 0.04505,3.33717 -0.15682,5.00267zm-2.10379,-14.77626c0.96097,2.26186 4.40444,2.31748 5.44716,0.08343c0.30531,-0.6628 0.32199,-1.39976 0.0367,-2.07183a38.95598,36.07546 0 0 0 -2.77613,-5.29467c-1.01102,-1.56816 -3.32002,-1.803 -4.68306,-0.48049c-0.90091,0.90073 -1.05273,2.19079 -0.38873,3.25374c0.91759,1.44611 1.70839,2.94629 2.36405,4.50982zm-9.26769,-12.16678c2.03872,1.6037 5.12184,0.10351 4.84989,-2.36538c-0.08509,-0.69833 -0.43377,-1.30551 -1.00435,-1.76747c-1.61663,-1.28697 -3.32169,-2.44263 -5.14019,-3.47313c-2.15551,-1.21745 -4.86324,0.48358 -4.43781,2.79025c0.15516,0.78331 0.62897,1.44765 1.36638,1.8648c1.5499,0.88219 2.98635,1.8509 4.36607,2.95093z" fill-rule="nonzero"/>
 </g>
</svg>